Motion_mu16
version=1
nRows=12
nColumns=43
inDegrees=yes
endheader
time	pelvis_tilt	pelvis_list	pelvis_rotation	pelvis_tx	pelvis_ty	pelvis_tz	hip_flexion_r	hip_adduction_r	hip_rotation_r	knee_angle_r	ankle_angle_r	subtalar_angle_r	mtp_angle_r	hip_flexion_l	hip_adduction_l	hip_rotation_l	knee_angle_l	ankle_angle_l	subtalar_angle_l	mtp_angle_l	lumbar_extension	lumbar_bending	lumbar_rotation	neck_flexion	neck_lateral_bending	neck_rotation	arm_flex_r	arm_add_r	arm_rot_r	elbow_flex_r	pro_sup_r	wrist_flex_r	wrist_dev_r	hand_finger_flex_r	arm_flex_l	arm_add_l	arm_rot_l	elbow_flex_l	pro_sup_l	wrist_flex_l	wrist_dev_l	hand_finger_flex_l
      0.93250000	     -2.28846849	     -6.62481475	    -90.89459100	      0.00592816	      0.97203093	      1.53196329	     -6.66947696	    -12.89179915	    -16.19582762	    -63.53465693	      1.28939188	     -0.56514792	     -9.89578628	    -11.43446048	    -11.77252732	    -20.27385443	    -63.84122740	     16.62948750	     -3.29734894	    -21.89108407	     25.16855673	     -2.87040409	     17.22641946	      1.40420639	     11.11140802	    -19.64893169	     19.62990312	   -127.10002427	    -70.86997382	     62.08317368	     89.65086836	     27.98868337	     -7.53673553	     73.12847227	    -30.03421891	    189.99379086	   -140.28801342	     45.05707285	    108.11974785	     21.92820254	      7.29244446	     90.00021046
      0.93500000	     -2.28651626	     -7.08472385	    -90.93987560	      0.00592371	      0.97401310	      1.53520442	     -7.41899627	    -12.86319543	    -16.37525050	    -62.90433660	      1.25007554	     -1.14157514	     -9.80727192	    -12.16987358	    -11.74211158	    -20.65601951	    -63.06378568	     16.51069456	     -3.45322950	    -21.71533899	     24.97134760	     -2.91914281	     17.30097665	      0.87096753	     11.61312071	    -19.80068831	     19.30952642	   -126.75675563	    -71.50519443	     62.28422964	     90.17114178	     28.11551977	     -7.32551069	     73.17645742	    -30.30001007	    189.64969744	   -140.96011642	     44.88666436	    108.27139253	     21.97134763	      7.37672593	     90.00021046
      0.93750000	     -2.28654166	     -7.05693895	    -90.85666452	      0.00601743	      0.97522550	      1.53828149	     -7.52438413	    -12.75271652	    -16.38706270	    -62.48870930	      1.21405899	     -1.17863116	     -9.80318333	    -12.23231491	    -11.71594869	    -20.67404277	    -62.45864080	     16.46665950	     -3.43731188	    -21.69694748	     25.18305383	     -2.96810737	     17.27828801	      0.97570334	     11.53638301	    -19.79815395	     19.31831761	   -126.78766820	    -71.63009005	     62.16364846	     90.23326228	     28.12261714	     -7.30428244	     73.18057401	    -30.30139514	    189.62365985	   -140.99088757	     44.88476778	    108.31653926	     21.97741538	      7.38930730	     90.00021046
      0.94000000	     -2.31410785	     -7.04946577	    -90.86126989	      0.00603625	      0.97670225	      1.54145068	     -7.73479356	    -12.65920681	    -16.46637781	    -61.86606042	      1.15680640	     -1.26359545	     -9.80265396	    -12.40804650	    -11.63893584	    -20.75603829	    -61.68586143	     16.40326346	     -3.42864414	    -21.67418615	     25.45156291	     -2.96447156	     17.24544668	      1.08028409	     11.47341769	    -19.82132511	     19.19027628	   -126.67175645	    -71.72476467	     62.19775230	     90.31228244	     28.16585615	     -7.28754358	     73.19316517	    -30.37745910	    189.53143932	   -141.07626865	     44.87629172	    108.37241040	     21.98388772	      7.40556054	     90.00021046
      0.94250000	     -2.33796389	     -7.13409201	    -90.84966339	      0.00599686	      0.97824246	      1.54458661	     -8.03758525	    -12.57404234	    -16.58821946	    -61.26137725	      1.06328467	     -1.43693004	     -9.80491044	    -12.66238930	    -11.57090006	    -20.92025714	    -60.92281613	     16.32366781	     -3.44741623	    -21.64133213	     25.63065240	     -2.99872271	     17.23991514	      1.06611902	     11.49482135	    -19.87763438	     19.05075849	   -126.48172864	    -71.91966455	     62.25627507	     90.43886932	     28.23527068	     -7.25509125	     73.21683065	    -30.50037746	    189.40875739	   -141.25114220	     44.85587824	    108.45788772	     21.99187518	      7.43264313	     90.00021046
      0.94500000	     -2.39322415	     -8.46481559	    -90.91025314	      0.00618365	      0.98061640	      1.54814521	     -9.81260932	    -12.46737155	    -16.90397819	    -60.45144918	      0.35048241	     -3.25098131	     -9.56884345	    -14.54940500	    -11.64232794	    -21.54121854	    -59.88240911	     16.11770404	     -3.67715088	    -20.65972802	     24.34800406	     -2.76488117	     16.61016783	      0.68413820	     11.07653680	    -19.49062316	     16.71211582	   -126.58700979	    -75.10974823	     61.86682703	     91.98138781	     29.11318124	     -7.32906282	     73.38019448	    -30.31347706	    189.88685355	   -141.29206350	     45.10134000	    110.27147271	     22.68731444	      7.50186478	     90.00021046
      0.94750000	     -2.39158280	     -8.44169192	    -90.87632317	      0.00626800	      0.98198226	      1.55108149	     -9.95456715	    -12.37062048	    -16.88690235	    -59.88229106	      0.34988369	     -3.21864102	     -9.56076971	    -14.62506402	    -11.55111195	    -21.50781895	    -59.21386561	     16.04992225	     -3.60442537	    -20.63263987	     24.62675802	     -2.82713912	     16.62025980	      0.73632309	     11.06417066	    -19.48858592	     16.60993557	   -126.40439925	    -75.27978439	     61.91127763	     92.03299082	     29.08952775	     -7.29066133	     73.37447295	    -30.42905997	    189.73055380	   -141.42491532	     45.02144287	    110.18093649	     22.69416999	      7.46544770	     90.00021046
      0.95000000	     -2.36241004	     -8.62107119	    -90.84568140	      0.00635255	      0.98367487	      1.55399786	    -10.34864534	    -12.35951596	    -17.10446528	    -59.28943534	      0.29335478	     -3.40713751	     -9.54396331	    -14.96443295	    -11.48300902	    -21.70730500	    -58.46163161	     15.89728224	     -3.51626389	    -20.52666029	     24.71503111	     -2.93715219	     16.65812395	      0.43491957	     11.38919054	    -19.57223893	     16.34584041	   -126.07454387	    -75.79678569	     62.11810479	     92.34646670	     29.08208265	     -7.08879686	     73.38531560	    -30.62530933	    189.43870837	   -141.81378500	     44.85685186	    110.04470357	     22.71433890	      7.40697660	     90.00021046
      0.95250000	     -2.37781790	     -8.60341045	    -90.79608242	      0.00644426	      0.98502756	      1.55691685	    -10.49166634	    -12.24847776	    -17.16594978	    -58.75521358	      0.26956574	     -3.46852692	     -9.54602586	    -15.05994659	    -11.43097576	    -21.76032896	    -57.73845283	     15.84000572	     -3.46455532	    -20.50281608	     24.96447146	     -2.96833769	     16.62204771	      0.53995477	     11.34107758	    -19.58377325	     16.25260027	   -126.01525296	    -75.89957525	     62.07881538	     92.43348615	     29.08852659	     -7.03633787	     73.39109781	    -30.69298338	    189.34580295	   -141.85598931	     44.81536015	    110.05837076	     22.71419492	      7.41090877	     90.00021046
      0.95500000	     -2.39362441	     -8.65295639	    -90.77931909	      0.00651297	      0.98657599	      1.55980321	    -10.73473974	    -12.15957178	    -17.31395845	    -58.11410289	      0.22307388	     -3.61826407	     -9.55466396	    -15.26587712	    -11.37760650	    -21.90293005	    -56.95810903	     15.76090148	     -3.39681639	    -20.47043212	     25.17244264	     -2.99820207	     16.62415600	      0.55393223	     11.36875588	    -19.62843726	     16.11819965	   -125.83317187	    -76.07267396	     62.21985143	     92.54080799	     29.11594508	     -6.96790618	     73.40672922	    -30.81496332	    189.17260547	   -141.97189143	     44.76302408	    110.08138079	     22.70641851	      7.42470182	     90.00021046
      0.95750000	     -2.38120476	     -9.12855969	    -90.73804984	      0.00654515	      0.98855040	      1.56266377	    -11.47874800	    -12.11518381	    -17.63307853	    -57.43056131	     -0.04970147	     -4.34753029	     -9.59867743	    -15.95474611	    -11.37436950	    -22.22727724	    -56.16242997	     15.59059703	     -3.20617697	    -20.31775039	     24.92438147	     -3.12014899	     16.64735045	      0.17789604	     11.78941888	    -19.79793332	     15.79349201	   -125.47734836	    -76.75797514	     62.42397173	     93.06267147	     29.21340326	     -6.63181167	     73.47153147	    -30.99461588	    188.83365773	   -142.42210667	     44.60148213	    110.28570558	     22.65573099	      7.52987092	     90.00021046
      0.96000000	     -2.51172897	    -10.00106122	    -90.76193325	      0.00659825	      0.99037035	      1.56593996	    -12.68999833	    -11.87648105	    -17.83312425	    -56.67431305	     -0.50159949	     -5.51233836	     -9.62096101	    -17.25487579	    -11.51736018	    -22.73701284	    -55.24589595	     15.72650333	     -2.57045602	    -18.79639951	     24.17696040	     -2.80249603	     15.70544412	     -0.02406249	     11.02625157	    -18.89714329	     12.83604668	   -125.66431292	    -80.33187966	     61.93741226	     94.04076183	     29.69068925	     -6.52974892	     73.56847385	    -30.63978567	    189.66389886	   -141.56514177	     44.80800192	    111.07635158	     23.19833797	      7.48054252	     90.00021046
